<svg xmlns="http://www.w3.org/2000/svg" viewBox="0 0 64 64" role="img" aria-label="Brain icon">
  <defs>
    <linearGradient id="brainGradient" x1="0%" y1="0%" x2="100%" y2="100%">
      <stop offset="0%" stop-color="#f9e3ff" />
      <stop offset="100%" stop-color="#d7b4ff" />
    </linearGradient>
  </defs>
  <path fill="url(#brainGradient)" d="M22 8c-6.6 0-12 5.4-12 12v3.5C5.1 26.6 2 31.6 2 37.3 2 47.4 10.6 56 20.7 56h1.1C23.3 60 27.3 62.8 32 62.8s8.7-2.8 10.2-6.8h1.1C53.4 56 62 47.4 62 37.3c0-8.2-5.3-15.3-12.8-17.7-.6-7.7-7-13.6-14.8-13.6-3.6 0-6.9 1.2-9.5 3.2C24.1 8.3 23.1 8 22 8Z" />
  <path fill="none" stroke="#8d5de8" stroke-width="3" stroke-linecap="round" stroke-linejoin="round" d="M20 18c-4.5 2.2-7.5 7-7.5 12.3 0 7.4 6 13.4 13.4 13.4h2.1M44 18c4.5 2.2 7.5 7 7.5 12.3 0 7.4-6 13.4-13.4 13.4H36M32 14v34M24 12c-2.8-4.2-9.5-2-9.5 3.6M40 12c2.8-4.2 9.5-2 9.5 3.6" />
</svg>
